<svg width="19" height="22" viewBox="0 0 19 22" fill="none" xmlns="http://www.w3.org/2000/svg">
<g clip-path="url(#clip0_209_57)">
<path d="M15.446 3.55403C14.4111 2.51921 12.7317 2.51921 11.6968 3.55403L3.89328 11.3576C2.10779 13.1431 2.10779 16.0355 3.89328 17.821C5.67877 19.6065 8.57118 19.6065 10.3567 17.821L16.8031 11.3746C17.2654 10.9123 18.0203 10.9123 18.4826 11.3746C18.9448 11.8368 18.9448 12.5918 18.4826 13.054L12.0361 19.5005C9.32185 22.2147 4.9281 22.2147 2.21381 19.5005C-0.500471 16.7862 -0.500471 12.3924 2.21381 9.67814L10.0174 1.87457C11.981 -0.0890486 15.1618 -0.0890486 17.1254 1.87457C19.089 3.83818 19.089 7.01899 17.1254 8.9826L9.66114 16.4469C8.44819 17.6598 6.48033 17.6598 5.26739 16.4469C4.05444 15.2339 4.05444 13.2661 5.26739 12.0531L11.3745 5.946C11.8368 5.48372 12.5917 5.48372 13.054 5.946C13.5163 6.40827 13.5163 7.16318 13.054 7.62546L6.94685 13.7326C6.6627 14.0168 6.6627 14.4833 6.94685 14.7674C7.231 15.0516 7.69752 15.0516 7.98167 14.7674L15.446 7.30314C16.4808 6.26832 16.4808 4.58885 15.446 3.55403Z" fill="black"/>
</g>
<defs>
<clipPath id="clip0_209_57">
<rect width="19" height="21.7143" fill="white"/>
</clipPath>
</defs>
</svg>
