<svg width="119" height="37" viewBox="0 0 119 37" fill="none" xmlns="http://www.w3.org/2000/svg">
<path d="M0.584 19.104C0.584 15.776 1.304 12.816 2.744 10.224C4.184 7.6 6.184 5.568 8.744 4.128C11.336 2.656 14.264 1.92 17.528 1.92C21.528 1.92 24.952 2.976 27.8 5.088C30.648 7.2 32.552 10.08 33.512 13.728H24.488C23.816 12.32 22.856 11.248 21.608 10.512C20.392 9.776 19 9.408 17.432 9.408C14.904 9.408 12.856 10.288 11.288 12.048C9.72 13.808 8.936 16.16 8.936 19.104C8.936 22.048 9.72 24.4 11.288 26.16C12.856 27.92 14.904 28.8 17.432 28.8C19 28.8 20.392 28.432 21.608 27.696C22.856 26.96 23.816 25.888 24.488 24.48H33.512C32.552 28.128 30.648 31.008 27.8 33.12C24.952 35.2 21.528 36.24 17.528 36.24C14.264 36.24 11.336 35.52 8.744 34.08C6.184 32.608 4.184 30.576 2.744 27.984C1.304 25.392 0.584 22.432 0.584 19.104ZM55.0025 8.928C58.0745 8.928 60.5385 9.952 62.3945 12C64.2505 14.016 65.1785 16.8 65.1785 20.352V36H57.0185V21.456C57.0185 19.664 56.5545 18.272 55.6265 17.28C54.6985 16.288 53.4505 15.792 51.8825 15.792C50.3145 15.792 49.0665 16.288 48.1385 17.28C47.2105 18.272 46.7465 19.664 46.7465 21.456V36H38.5385V0.48H46.7465V12.816C47.5785 11.632 48.7145 10.688 50.1545 9.984C51.5945 9.28 53.2105 8.928 55.0025 8.928ZM69.2503 22.56C69.2503 19.808 69.7623 17.392 70.7863 15.312C71.8423 13.232 73.2663 11.632 75.0583 10.512C76.8503 9.392 78.8503 8.832 81.0583 8.832C82.9463 8.832 84.5943 9.216 86.0023 9.984C87.4423 10.752 88.5463 11.76 89.3143 13.008V9.216H97.5223V36H89.3143V32.208C88.5143 33.456 87.3943 34.464 85.9543 35.232C84.5463 36 82.8983 36.384 81.0103 36.384C78.8343 36.384 76.8503 35.824 75.0583 34.704C73.2663 33.552 71.8423 31.936 70.7863 29.856C69.7623 27.744 69.2503 25.312 69.2503 22.56ZM89.3143 22.608C89.3143 20.56 88.7383 18.944 87.5863 17.76C86.4663 16.576 85.0903 15.984 83.4583 15.984C81.8263 15.984 80.4343 16.576 79.2823 17.76C78.1623 18.912 77.6023 20.512 77.6023 22.56C77.6023 24.608 78.1623 26.24 79.2823 27.456C80.4343 28.64 81.8263 29.232 83.4583 29.232C85.0903 29.232 86.4663 28.64 87.5863 27.456C88.7383 26.272 89.3143 24.656 89.3143 22.608ZM118.388 29.04V36H114.212C111.236 36 108.916 35.28 107.252 33.84C105.588 32.368 104.756 29.984 104.756 26.688V16.032H101.492V9.216H104.756V2.688H112.964V9.216H118.34V16.032H112.964V26.784C112.964 27.584 113.156 28.16 113.54 28.512C113.924 28.864 114.564 29.04 115.46 29.04H118.388Z" fill="white"/>
</svg>
