<svg width="75" height="60" viewBox="0 0 75 60" fill="none" xmlns="http://www.w3.org/2000/svg">
<g clip-path="url(#clip0_203_13)">
<path d="M24.2123 41.25C37.5874 41.25 48.4248 32.0156 48.4248 20.625C48.4248 9.23438 37.5874 0 24.2123 0C10.8372 0 -0.00022136 9.23438 -0.00022136 20.625C-0.00022136 25.1484 1.71095 29.332 4.60947 32.7422C4.20204 33.8438 3.59673 34.8164 2.9565 35.6367C2.39775 36.3633 1.82736 36.9258 1.40829 37.3125C1.19876 37.5 1.02415 37.6523 0.907747 37.7461C0.849544 37.793 0.802982 37.8281 0.779701 37.8398L0.756419 37.8633C0.116185 38.3438 -0.16319 39.1875 0.0929036 39.9492C0.348997 40.7109 1.05908 41.25 1.86228 41.25C4.39993 41.25 6.96087 40.5938 9.09111 39.7852C10.162 39.375 11.1631 38.918 12.0362 38.4492C15.6099 40.2305 19.7656 41.25 24.2123 41.25ZM52.1498 20.625C52.1498 33.7852 40.6139 43.6992 26.9478 44.8828C29.7765 53.6016 39.1588 60 50.2873 60C54.734 60 58.8897 58.9805 62.475 57.1992C63.3481 57.668 64.3375 58.125 65.4085 58.5352C67.5387 59.3438 70.0996 60 72.6373 60C73.4405 60 74.1622 59.4727 74.4067 58.6992C74.6511 57.9258 74.3834 57.082 73.7315 56.6016L73.7082 56.5781C73.6849 56.5547 73.6384 56.5312 73.5802 56.4844C73.4638 56.3906 73.2892 56.25 73.0796 56.0508C72.6606 55.6641 72.0902 55.1016 71.5314 54.375C70.8912 53.5547 70.2859 52.5703 69.8784 51.4805C72.777 48.082 74.4881 43.8984 74.4881 39.3633C74.4881 28.4883 64.6052 19.5703 52.0683 18.7969C52.1149 19.3945 52.1381 20.0039 52.1381 20.6133L52.1498 20.625Z" fill="white"/>
</g>
<defs>
<clipPath id="clip0_203_13">
<rect width="74.5" height="60" fill="white"/>
</clipPath>
</defs>
</svg>
